# xmcd CD database file
#
# Track frame offsets:
#	150
#	29905
#	48603
#	59373
#	82973
#	100305
#	117143
#	135288
#	157318
#	176803
#	191358
#	208528
#	226563
#	244710
#
# Disc length: 3480 seconds
#
# Revision: 2
# Processed by: cddbd v1.5.1PL0 Copyright (c) Steve Scherf et al.
# Submitted via: CDex 1.51
#
DISCID=bb0d960e
DTITLE=Various Artist - Volume Head - Music from A&M
DYEAR=1992
DGENRE=Rock
TTITLE0=Soundgarden - Into The Void
TTITLE1=Daisy Chainsaw - Pink Flowers
TTITLE2=Daisy Chainsaw - All The Kids
TTITLE3=Swervedriver - Sci-Flyer
TTITLE4=Swervedriver - Scrawl and Scream
TTITLE5=Kitchens of Distinction - Breathing Fear
TTITLE6=Gin Blossoms - Hey Jealousy
TTITLE7=Gin Blossoms - Hold Me Down
TTITLE8=Del Amitri - Always The Last To Know
TTITLE9=Del Amitri - The Ones You Love Lead You Nowhere
TTITLE10=The Heart Throbs - Outside
TTITLE11=The Heart Throbs - Hooligan
TTITLE12=CUD - Through The Roof
TTITLE13=CUD - Rich And Strange
EXTD=YEAR: 1992
EXTT0=
EXTT1=
EXTT2=
EXTT3=
EXTT4=
EXTT5=
EXTT6=
EXTT7=
EXTT8=
EXTT9=
EXTT10=
EXTT11=
EXTT12=
EXTT13=
PLAYORDER=
